<mxfile host="app.diagrams.net" modified="2022-05-12T16:38:34.670Z" agent="5.0 (Windows NT 10.0; Win64; x64) AppleWebKit/537.36 (KHTML, like Gecko) Chrome/101.0.4951.54 Safari/537.36" etag="oKgoXE1AY4nUt9HO6mhy" version="18.0.2" type="github">
  <diagram id="8V0yG2IG4E0xh3bkZTkE" name="Page-1">
    <mxGraphModel dx="1673" dy="939" grid="1" gridSize="10" guides="1" tooltips="1" connect="1" arrows="1" fold="1" page="1" pageScale="1" pageWidth="827" pageHeight="1169" math="0" shadow="0">
      <root>
        <mxCell id="0" />
        <mxCell id="1" parent="0" />
        <mxCell id="EL26O12seNg8t94iUWMC-4" style="edgeStyle=orthogonalEdgeStyle;rounded=0;orthogonalLoop=1;jettySize=auto;html=1;exitX=0.5;exitY=1;exitDx=0;exitDy=0;entryX=0.5;entryY=0;entryDx=0;entryDy=0;" parent="1" source="EL26O12seNg8t94iUWMC-1" edge="1">
          <mxGeometry relative="1" as="geometry">
            <mxPoint x="370" y="110" as="targetPoint" />
          </mxGeometry>
        </mxCell>
        <mxCell id="EL26O12seNg8t94iUWMC-1" value="Valeur saisie dans la barre de recherche" style="rounded=1;whiteSpace=wrap;html=1;" parent="1" vertex="1">
          <mxGeometry x="250" y="20" width="240" height="60" as="geometry" />
        </mxCell>
        <mxCell id="EL26O12seNg8t94iUWMC-5" value="&lt;span&gt;La valeur est nulle&lt;/span&gt;" style="rhombus;whiteSpace=wrap;html=1;" parent="1" vertex="1">
          <mxGeometry x="275" y="110" width="190" height="80" as="geometry" />
        </mxCell>
        <mxCell id="EL26O12seNg8t94iUWMC-7" value="Retourne la liste des recettes" style="rounded=0;whiteSpace=wrap;html=1;" parent="1" vertex="1">
          <mxGeometry x="630" y="120" width="175" height="60" as="geometry" />
        </mxCell>
        <mxCell id="EL26O12seNg8t94iUWMC-8" value="OUI" style="text;html=1;strokeColor=none;fillColor=none;align=center;verticalAlign=middle;whiteSpace=wrap;rounded=0;" parent="1" vertex="1">
          <mxGeometry x="460" y="120" width="60" height="30" as="geometry" />
        </mxCell>
        <mxCell id="EL26O12seNg8t94iUWMC-9" value="Filtrage de la liste des recettes" style="rounded=0;whiteSpace=wrap;html=1;" parent="1" vertex="1">
          <mxGeometry x="240" y="230" width="260" height="60" as="geometry" />
        </mxCell>
        <mxCell id="EL26O12seNg8t94iUWMC-10" value="" style="endArrow=classic;html=1;rounded=0;exitX=0.5;exitY=1;exitDx=0;exitDy=0;" parent="1" source="EL26O12seNg8t94iUWMC-5" target="EL26O12seNg8t94iUWMC-9" edge="1">
          <mxGeometry width="50" height="50" relative="1" as="geometry">
            <mxPoint x="390" y="410" as="sourcePoint" />
            <mxPoint x="440" y="360" as="targetPoint" />
          </mxGeometry>
        </mxCell>
        <mxCell id="EL26O12seNg8t94iUWMC-11" value="NON" style="text;html=1;strokeColor=none;fillColor=none;align=center;verticalAlign=middle;whiteSpace=wrap;rounded=0;" parent="1" vertex="1">
          <mxGeometry x="360" y="190" width="60" height="30" as="geometry" />
        </mxCell>
        <mxCell id="EL26O12seNg8t94iUWMC-20" value="" style="edgeStyle=orthogonalEdgeStyle;rounded=0;orthogonalLoop=1;jettySize=auto;html=1;" parent="1" source="EL26O12seNg8t94iUWMC-12" edge="1">
          <mxGeometry relative="1" as="geometry">
            <mxPoint x="552.5" y="410" as="targetPoint" />
          </mxGeometry>
        </mxCell>
        <mxCell id="EL26O12seNg8t94iUWMC-12" value="La valeur est incluse dans&lt;br&gt;&amp;nbsp;la description de la recette" style="rhombus;whiteSpace=wrap;html=1;" parent="1" vertex="1">
          <mxGeometry x="267.5" y="360" width="205" height="100" as="geometry" />
        </mxCell>
        <mxCell id="EL26O12seNg8t94iUWMC-14" value="" style="endArrow=oval;html=1;rounded=0;exitX=0.5;exitY=1;exitDx=0;exitDy=0;entryX=0.233;entryY=-0.002;entryDx=0;entryDy=0;entryPerimeter=0;endFill=1;" parent="1" source="EL26O12seNg8t94iUWMC-9" target="FwYqIJFNJ340On4juqLM-2" edge="1">
          <mxGeometry width="50" height="50" relative="1" as="geometry">
            <mxPoint x="390" y="390" as="sourcePoint" />
            <mxPoint x="440" y="340" as="targetPoint" />
          </mxGeometry>
        </mxCell>
        <mxCell id="EL26O12seNg8t94iUWMC-15" value="OUI" style="text;html=1;strokeColor=none;fillColor=none;align=center;verticalAlign=middle;whiteSpace=wrap;rounded=0;" parent="1" vertex="1">
          <mxGeometry x="472.5" y="380" width="60" height="30" as="geometry" />
        </mxCell>
        <mxCell id="EL26O12seNg8t94iUWMC-16" value="Retourne la recette en cours d&#39;analyse" style="rounded=0;whiteSpace=wrap;html=1;" parent="1" vertex="1">
          <mxGeometry x="550" y="380" width="230" height="60" as="geometry" />
        </mxCell>
        <mxCell id="EL26O12seNg8t94iUWMC-22" value="La valeur est incluse dans&lt;br&gt;&amp;nbsp;le titre de la recette" style="rhombus;whiteSpace=wrap;html=1;" parent="1" vertex="1">
          <mxGeometry x="267.5" y="500" width="205" height="100" as="geometry" />
        </mxCell>
        <mxCell id="EL26O12seNg8t94iUWMC-23" value="OUI" style="text;html=1;strokeColor=none;fillColor=none;align=center;verticalAlign=middle;whiteSpace=wrap;rounded=0;" parent="1" vertex="1">
          <mxGeometry x="472.5" y="520" width="60" height="30" as="geometry" />
        </mxCell>
        <mxCell id="EL26O12seNg8t94iUWMC-27" value="" style="endArrow=classic;html=1;rounded=0;exitX=0.5;exitY=1;exitDx=0;exitDy=0;entryX=0.5;entryY=0;entryDx=0;entryDy=0;" parent="1" source="EL26O12seNg8t94iUWMC-12" target="EL26O12seNg8t94iUWMC-22" edge="1">
          <mxGeometry width="50" height="50" relative="1" as="geometry">
            <mxPoint x="390" y="540" as="sourcePoint" />
            <mxPoint x="440" y="490" as="targetPoint" />
          </mxGeometry>
        </mxCell>
        <mxCell id="EL26O12seNg8t94iUWMC-28" value="NON" style="text;html=1;strokeColor=none;fillColor=none;align=center;verticalAlign=middle;whiteSpace=wrap;rounded=0;" parent="1" vertex="1">
          <mxGeometry x="310" y="460" width="60" height="30" as="geometry" />
        </mxCell>
        <mxCell id="EL26O12seNg8t94iUWMC-31" value="" style="endArrow=classic;html=1;rounded=0;exitX=0.5;exitY=1;exitDx=0;exitDy=0;entryX=0.5;entryY=0;entryDx=0;entryDy=0;" parent="1" source="EL26O12seNg8t94iUWMC-22" target="EL26O12seNg8t94iUWMC-33" edge="1">
          <mxGeometry width="50" height="50" relative="1" as="geometry">
            <mxPoint x="390" y="540" as="sourcePoint" />
            <mxPoint x="370" y="644" as="targetPoint" />
          </mxGeometry>
        </mxCell>
        <mxCell id="EL26O12seNg8t94iUWMC-32" value="NON" style="text;html=1;strokeColor=none;fillColor=none;align=center;verticalAlign=middle;whiteSpace=wrap;rounded=0;" parent="1" vertex="1">
          <mxGeometry x="310" y="605" width="60" height="30" as="geometry" />
        </mxCell>
        <mxCell id="EL26O12seNg8t94iUWMC-33" value="Mappage des champs nom des ingrédients&amp;nbsp;de la recette &lt;br&gt;(on ne conserve pas les unités et les quantités)" style="rounded=0;whiteSpace=wrap;html=1;" parent="1" vertex="1">
          <mxGeometry x="255" y="640" width="230" height="80" as="geometry" />
        </mxCell>
        <mxCell id="EL26O12seNg8t94iUWMC-34" value="Nombre ingrédient retenu &lt;br&gt;est égal à 0" style="rhombus;whiteSpace=wrap;html=1;" parent="1" vertex="1">
          <mxGeometry x="260" y="760" width="220" height="100" as="geometry" />
        </mxCell>
        <mxCell id="EL26O12seNg8t94iUWMC-35" value="" style="endArrow=classic;html=1;rounded=0;exitX=0.5;exitY=1;exitDx=0;exitDy=0;entryX=0.5;entryY=0;entryDx=0;entryDy=0;" parent="1" source="EL26O12seNg8t94iUWMC-33" target="EL26O12seNg8t94iUWMC-34" edge="1">
          <mxGeometry width="50" height="50" relative="1" as="geometry">
            <mxPoint x="390" y="700" as="sourcePoint" />
            <mxPoint x="440" y="650" as="targetPoint" />
          </mxGeometry>
        </mxCell>
        <mxCell id="EL26O12seNg8t94iUWMC-36" value="La valeur saisie est incluse&lt;br&gt;dans la liste des ingrédients" style="rhombus;whiteSpace=wrap;html=1;" parent="1" vertex="1">
          <mxGeometry x="570" y="750" width="190" height="120" as="geometry" />
        </mxCell>
        <mxCell id="EL26O12seNg8t94iUWMC-37" value="" style="endArrow=classic;html=1;rounded=0;exitX=1;exitY=0.5;exitDx=0;exitDy=0;entryX=0;entryY=0.5;entryDx=0;entryDy=0;" parent="1" source="EL26O12seNg8t94iUWMC-34" target="EL26O12seNg8t94iUWMC-36" edge="1">
          <mxGeometry width="50" height="50" relative="1" as="geometry">
            <mxPoint x="390" y="770" as="sourcePoint" />
            <mxPoint x="440" y="720" as="targetPoint" />
          </mxGeometry>
        </mxCell>
        <mxCell id="EL26O12seNg8t94iUWMC-38" value="NON" style="text;html=1;strokeColor=none;fillColor=none;align=center;verticalAlign=middle;whiteSpace=wrap;rounded=0;" parent="1" vertex="1">
          <mxGeometry x="480" y="780" width="60" height="30" as="geometry" />
        </mxCell>
        <mxCell id="EL26O12seNg8t94iUWMC-39" value="" style="endArrow=classic;html=1;rounded=0;exitX=0.5;exitY=0;exitDx=0;exitDy=0;entryX=0.5;entryY=1;entryDx=0;entryDy=0;" parent="1" source="EL26O12seNg8t94iUWMC-36" target="EL26O12seNg8t94iUWMC-16" edge="1">
          <mxGeometry width="50" height="50" relative="1" as="geometry">
            <mxPoint x="390" y="770" as="sourcePoint" />
            <mxPoint x="670" y="550" as="targetPoint" />
          </mxGeometry>
        </mxCell>
        <mxCell id="EL26O12seNg8t94iUWMC-40" value="" style="endArrow=none;html=1;rounded=0;entryX=0;entryY=1;entryDx=0;entryDy=0;" parent="1" target="EL26O12seNg8t94iUWMC-23" edge="1">
          <mxGeometry width="50" height="50" relative="1" as="geometry">
            <mxPoint x="665" y="550" as="sourcePoint" />
            <mxPoint x="510" y="550" as="targetPoint" />
          </mxGeometry>
        </mxCell>
        <mxCell id="EL26O12seNg8t94iUWMC-41" value="" style="endArrow=classic;html=1;rounded=0;exitX=1;exitY=0.5;exitDx=0;exitDy=0;" parent="1" source="EL26O12seNg8t94iUWMC-22" edge="1">
          <mxGeometry width="50" height="50" relative="1" as="geometry">
            <mxPoint x="390" y="770" as="sourcePoint" />
            <mxPoint x="600" y="550" as="targetPoint" />
          </mxGeometry>
        </mxCell>
        <mxCell id="EL26O12seNg8t94iUWMC-42" value="" style="endArrow=classic;html=1;rounded=0;exitX=0.5;exitY=0;exitDx=0;exitDy=0;" parent="1" source="EL26O12seNg8t94iUWMC-36" edge="1">
          <mxGeometry width="50" height="50" relative="1" as="geometry">
            <mxPoint x="390" y="770" as="sourcePoint" />
            <mxPoint x="665" y="630" as="targetPoint" />
          </mxGeometry>
        </mxCell>
        <mxCell id="EL26O12seNg8t94iUWMC-43" value="OUI" style="text;html=1;strokeColor=none;fillColor=none;align=center;verticalAlign=middle;whiteSpace=wrap;rounded=0;" parent="1" vertex="1">
          <mxGeometry x="670" y="730" width="60" height="30" as="geometry" />
        </mxCell>
        <mxCell id="EL26O12seNg8t94iUWMC-44" value="" style="endArrow=classic;html=1;rounded=0;entryX=0;entryY=0.5;entryDx=0;entryDy=0;exitX=1;exitY=0.5;exitDx=0;exitDy=0;" parent="1" source="EL26O12seNg8t94iUWMC-5" target="EL26O12seNg8t94iUWMC-7" edge="1">
          <mxGeometry width="50" height="50" relative="1" as="geometry">
            <mxPoint x="390" y="220" as="sourcePoint" />
            <mxPoint x="440" y="170" as="targetPoint" />
          </mxGeometry>
        </mxCell>
        <mxCell id="EL26O12seNg8t94iUWMC-47" value="OUI" style="text;html=1;strokeColor=none;fillColor=none;align=center;verticalAlign=middle;whiteSpace=wrap;rounded=0;" parent="1" vertex="1">
          <mxGeometry x="310" y="860" width="60" height="30" as="geometry" />
        </mxCell>
        <mxCell id="EL26O12seNg8t94iUWMC-49" value="" style="endArrow=classic;html=1;rounded=0;exitX=0.5;exitY=1;exitDx=0;exitDy=0;entryX=1;entryY=0.5;entryDx=0;entryDy=0;" parent="1" source="EL26O12seNg8t94iUWMC-36" target="4imFWhA3wEILU6Uvj2Rw-1" edge="1">
          <mxGeometry width="50" height="50" relative="1" as="geometry">
            <mxPoint x="660" y="950" as="sourcePoint" />
            <mxPoint x="400" y="950" as="targetPoint" />
            <Array as="points">
              <mxPoint x="665" y="960" />
            </Array>
          </mxGeometry>
        </mxCell>
        <mxCell id="EL26O12seNg8t94iUWMC-51" value="" style="endArrow=classic;html=1;rounded=0;" parent="1" edge="1">
          <mxGeometry width="50" height="50" relative="1" as="geometry">
            <mxPoint x="370" y="860" as="sourcePoint" />
            <mxPoint x="370" y="930" as="targetPoint" />
          </mxGeometry>
        </mxCell>
        <mxCell id="EL26O12seNg8t94iUWMC-52" value="NON" style="text;html=1;strokeColor=none;fillColor=none;align=center;verticalAlign=middle;whiteSpace=wrap;rounded=0;" parent="1" vertex="1">
          <mxGeometry x="670" y="860" width="60" height="30" as="geometry" />
        </mxCell>
        <mxCell id="EL26O12seNg8t94iUWMC-55" value="" style="endArrow=classic;html=1;rounded=0;entryX=0.5;entryY=1;entryDx=0;entryDy=0;exitX=1;exitY=0.5;exitDx=0;exitDy=0;" parent="1" source="EL26O12seNg8t94iUWMC-9" target="EL26O12seNg8t94iUWMC-7" edge="1">
          <mxGeometry width="50" height="50" relative="1" as="geometry">
            <mxPoint x="300" y="500" as="sourcePoint" />
            <mxPoint x="350" y="450" as="targetPoint" />
            <Array as="points">
              <mxPoint x="600" y="260" />
              <mxPoint x="718" y="260" />
            </Array>
          </mxGeometry>
        </mxCell>
        <mxCell id="4imFWhA3wEILU6Uvj2Rw-1" value="La recette n&#39;est pas retenue" style="rounded=0;whiteSpace=wrap;html=1;" parent="1" vertex="1">
          <mxGeometry x="300" y="930" width="140" height="60" as="geometry" />
        </mxCell>
        <mxCell id="FwYqIJFNJ340On4juqLM-2" value="" style="swimlane;startSize=0;" vertex="1" parent="1">
          <mxGeometry x="240" y="340" width="560" height="670" as="geometry" />
        </mxCell>
      </root>
    </mxGraphModel>
  </diagram>
</mxfile>
